<svg version="1.2" xmlns="http://www.w3.org/2000/svg" viewBox="0 0 1080 1080" width="1080" height="1080">
	<title>New Project</title>
	<defs>
		<linearGradient id="g1" x2="1" gradientUnits="userSpaceOnUse" gradientTransform="matrix(-920.385,1052.635,-873.164,-763.463,891,-45.542)">
			<stop offset="0" stop-color="#ff827a"/>
			<stop offset="1" stop-color="#ffa825"/>
		</linearGradient>
	</defs>
	<style>
		.s0 { fill: url(#g1) } 
	</style>
	<path fill-rule="evenodd" class="s0" d="m989 840c59.3-88.8 91-193.2 91-300h-392.1c0 29.3-8.7 57.9-24.9 82.2-16.3 24.3-39.4 43.3-66.4 54.5-27 11.2-56.8 14.1-85.5 8.4-28.7-5.7-55-19.8-75.7-40.5-20.7-20.7-34.8-47-40.5-75.7-5.7-28.7-2.8-58.5 8.4-85.5 11.2-27 30.2-50.1 54.5-66.4 24.3-16.2 52.9-24.9 82.2-24.9v-392.1c-106.8 0-211.2 31.7-300 91-88.8 59.3-158 143.7-198.9 242.4-40.9 98.6-51.6 207.2-30.7 311.9 20.8 104.8 72.2 201 147.8 276.5 75.5 75.6 171.7 127 276.5 147.8 104.7 20.9 213.3 10.2 311.9-30.7 98.7-40.9 183.1-110.1 242.4-198.9zm91-840v391.3h-391.3v-391.3z"/>
	<g id="Layer 1">
	</g>
</svg>